/* XPM */
static char *_f758f5be18f410d92ba97fe77ed242d[] = {
/* columns rows colors chars-per-pixel */
"64 64 133 2 ",
"   c #9EA95C",
".  c #9CA75B",
"X  c #839154",
"o  c #98A25A",
"O  c #8B9759",
"+  c #818F52",
"@  c #929F59",
"#  c #829053",
"$  c #899759",
"%  c #9BA55B",
"&  c #93A25B",
"*  c #889456",
"=  c #869355",
"-  c #7F8D52",
";  c #899557",
":  c #9BA65B",
">  c #96A25A",
",  c #8E9A58",
"<  c #94A15A",
"1  c #7E8B51",
"2  c #899657",
"3  c #9DA85C",
"4  c #8A9756",
"5  c gray27",
"6  c #8C9858",
"7  c #808E51",
"8  c #99A35A",
"9  c #8F9B58",
"0  c #FBD390",
"q  c #818F54",
"w  c #7C8850",
"e  c #919D59",
"r  c #92A059",
"t  c #9AA45A",
"y  c #808E53",
"u  c #879254",
"i  c #889557",
"p  c #A0AB5E",
"a  c #727B44",
"s  c #849255",
"d  c #79844C",
"f  c #97A35B",
"g  c #1E1F1E",
"h  c #2D2D2A",
"j  c #353734",
"k  c #252621",
"l  c #161613",
"z  c #1A1B17",
"x  c #474948",
"c  c #3B3B39",
"v  c #3F4040",
"b  c #0A0A08",
"n  c #12120F",
"m  c #737E46",
"M  c #23282F",
"N  c #5C623D",
"B  c #6D7244",
"V  c #555C3B",
"C  c #859052",
"Z  c #76804A",
"A  c #4B4C4B",
"S  c #616A3D",
"D  c #848E53",
"F  c #28303D",
"G  c #454731",
"H  c #5B4631",
"J  c #32251A",
"K  c #413121",
"L  c #E6E7E7",
"P  c #F8CF8E",
"I  c #7C6C51",
"U  c #959F5C",
"Y  c #FCD694",
"T  c #241C14",
"R  c #8D9753",
"E  c #666E40",
"W  c #707747",
"Q  c #363625",
"!  c #4D5032",
"~  c #374355",
"^  c #63523B",
"/  c #ECCA8E",
"(  c #CBA876",
")  c #99835E",
"_  c gray94",
"`  c #747B49",
"'  c #303B4C",
"]  c #867858",
"[  c #565C5E",
"{  c #72583C",
"}  c #8D964E",
"|  c #3F3F2D",
" . c #9C7957",
".. c #826043",
"X. c #AD815A",
"o. c #BBBEBF",
"O. c #9B704A",
"+. c #A8B3B8",
"@. c #DDDFE0",
"#. c #B4C9D4",
"$. c #828B4D",
"%. c #726443",
"&. c #798287",
"*. c #BA895A",
"=. c #C9C9C8",
"-. c #D7B582",
";. c #D5D5D2",
":. c #E2C18C",
">. c #8C9BA1",
",. c #65614D",
"<. c #A88F69",
"1. c #AAB163",
"2. c #384B60",
"3. c #3D4745",
"4. c #F9C484",
"5. c #6C6F6F",
"6. c #EBEBEC",
"7. c #6E4932",
"8. c #4E514D",
"9. c #5E3A24",
"0. c #EDB277",
"q. c #FADDAA",
"w. c #A4A7A7",
"e. c #757976",
"r. c #C79B69",
"t. c #CDC1A7",
"y. c #888E8D",
"u. c #B89E72",
"i. c #D4AE7A",
"p. c #B99667",
"a. c #8E8677",
"s. c #726656",
"d. c #466C91",
/* pixels */
"3 3 3                                         p p p p p p p p p } d 1.p p p p p p p                                         3 3 ",
". 3 3 3 3                                           p p p p p p } d 1.p p p p                                     3 3 3 3 3 3 . ",
". . . . . . . 3 3                                             p } d 1.                                    3 3 . 3 . . . . . 3 3 ",
". . . . . . . . . . . 3 3                                       } d 1.                            3 3 3 . . . . . . . . . . 3 . ",
". . . . . . . . . . . . . . 3 3 3 3 3                 p         } d 1.3   3 3       p p         3 3 3 . . . . . . . . : . . . . ",
". . . . . . . . % . . . . . . . . . . . . . 3 3 3   , *     p p } d 1.    3 3 3 3         3 3 3 3 3 . . . . . . . . . : : : : : ",
"% : . . . .   @ R : . . . . . . . . . . . . .   % E h B % R D w W S * R o       3 3 3 3 3 3 3 . . . . . . . . . . . : : % % t t ",
"% % : : : % u d < : : : : . . . . . . . . . @ E N k Q N G c j j j j j c G V ` e   3 . . . . . . . . . . . . . : : % % t t 8 8 8 ",
"8 t t % t < } C : % % % % % : : : : : : :   Z z h c c v v 5 5 x x x x x v c j G B < 3 . . . . . . : . . . : % % t t t t t t 8 8 ",
"o 8 8 t % t   U > : % % : : : % % : : % . o B c 5 5 5 5 5 5 5 5 5 5 5 5 v j h h k G C : : : . : : : : : : % % % t t t t % t t 8 ",
"o o o 8 8 8 o 8 < % % % % % % % % % % : d | j 5 5 5 x x 5 5 5 5 5 5 x 5 5 5 v h n k B % % : : : : % : : : % % % % % % % % % t t ",
"o o o o o o o o 8 8 t t % % % % % % : Z g M 5 5 5 5 A v 5 x 5 x x v A 5 5 5 x x c h N > : : : : : : : : : : : % : % % t t t 8 8 ",
"o o o o o o o o o o o 8 t t % % % % % a Q c 5 5 x A 8.h 5 A v v x j A x 5 x A 5 v j h V o % % % : : % % % : % t t 8 8 o o o o o ",
"o o o o o o o o o o o o 8 8 % % % % . w c 5 5 5 A A 8.z c x c M x h 5 x x x A j c v h h S : % % % % % t t t 8 o o o 8 o o o o o ",
"f f f f f o o 8 8 8 8 8 8 8 t % % % o G j 5 5 x v 5 5 l k c M l c g j x A A x h h x h h h $.. % t t 8 8 o o o o o o o o o o o o ",
"> f f f f f f f 8 8 8 8 8 8 t % % . d g j v v A h c h K J j l b g z g 5 A A j l h x v g M ! 8 8 8 8 8 o o o o o o o o o o o o o ",
"> > > f f f f f f o o 8 8 8 8 t % . V l j j c A g h g  .{ g n n J l n c x 5 h b g j c g k k $.8 o o o o o o o o o o o o o o o > ",
"< > > > > > f f f f o o o o 8 8 t > Q z j h c x z k k i.( J b J X.J b k v c g b ^ T k g g z E t o o o o o o o o o o > > > > > > ",
"< < > > > > > > > f f f o o o 8 t R g l j k c v l z Q / P O.T ] P X.T n h j l J i.H b z l n ! 8 o o o o o o o o o > > > & & & & ",
"U < < > > > > > > > > > > f f o 8 C l z h g c c l n | ) %.H Q u.P 4.{ b g k T ) 0 *.b l l n | U o o f f > > > > > & & & & & & & ",
"U U r < < > > > > > > > > > > > f D l z h z j h J l Q ] ) <.) %.) :.( O.J g T ^ I p.J b z h Z U > > > > > > > & & & & & & & & & ",
"@ r r r r < < > > > > > > > > > f D l z k l h k { K I -.( ( :./ -.:.P 4.7.z ] ( <.I K b g k R > > > & & & & & & & & & & & & & & ",
"r r @ @ r r r < & > > < < & < < > * z l k n h g O.,.3.Q T h A { u.P 0 P O.J ) <.u.-.K n g h R > & & & & & & & & & & & & & & & & ",
"r r r r r @ r r r < < < < < < & > e k n k n k T X.>.>.K T e.@.[ 5.( Y P *.v T K c ,.k z z Q e & & & & & & & & & & & & & & r r r ",
"r r r @ r r r r r r < < < & @ r & > G b k l z T p.;.>.K J v a.G >./ 0 P -.y.J 5.y.e.g z n G e & & & & & & & & & & < < r r r r @ ",
"e @ @ @ @ @ @ r r r r < < 9 + @ < f E b k z l T r.q.o.H K T K H t.Y 0 0 0 w.K J 8.e.g g b E > < & & & & < < < r r < r @ @ @ @ @ ",
"e e e e e @ r r r @ @ r r 9 , @ < & + z z z n T r.Y =.s.9.9.9.a.q.0 0 0 Y t.H J s.5.l z g u < r r r r r @ @ @ @ @ @ @ @ @ @ @ @ ",
"e e e e e e @ @ @ @ @ @ @ r r r r & < G n z b z r.Y :.<.^ H I :.Y 0 0 0 0 :.^ K <.s.b l N & r r r r @ @ @ @ @ @ @ @ @ @ @ @ @ @ ",
"9 9 9 e e e e e @ @ @ @ @ @ @ r r < & 1 ! z b l p.Y 0 0 P / / 0 0 0 0 0 0 / u.) :.] b k u < r @ @ @ @ @ @ @ @ @ @ @ e @ @ @ e e ",
"9 9 9 e e e e e e @ @ @ @ @ @ @ @ @ < < ; Q b n *.0 0 0 0 0 0 0 0 0 0 0 0 0 Y Y q.I b G r r @ @ @ @ @ @ @ @ @ @ @ @ @ e e e e e ",
"a a W a a W W W a a a a a a a a a m m a m N z n O.4.0 0 0 0 0 0 0 0 0 0 0 0 0 q.t.h b V a a a a a a a a a a a a a a a a a a a a ",
"Z m m m m m B V N W m m m Z Z m a E S N S B N G %.*./ Y Y 0 0 0 / / P 0 0 Y q.t.G b Q S B Z d d d d d d d d d d d d d d d d d d ",
", , , , 9 e U u a d 6 e e @ @ e u $.m w * , 9 4 6 B ,.) ( :.P / ( -.P 0 / -.] G G Q $.R } C R e < U @ @ @ @ @ e e e e 9 9 9 9 9 ",
"O O 4 4 4 6 6 6 6 y 1 R , 9 9 R u d C 6 9 9 e 6 S ,.>.e.5 K H { I ] I %.^ ! N $.R u e e t % e C # 4 6 6 6 6 6 6 6 4 4 O O O O O ",
"O O O O 4 4 4 6 6 6 4 4 , , 9 6 7 * , , 9 e X ! M ~ +.;.w.[ v 5.A ! m Z $.6 @ e e e 9 9 9 9 9 9 4 2 6 6 6 6 6 4 4 O O O O O O O ",
"O O O O O 4 4 4 4 6 6 6 6 , , * * , 6 , 9 C G M ' ' y.L ;.=.=.;.[ N : e 9 9 9 9 9 9 9 9 9 , , , 9 9 , 6 4 4 4 4 4 O O O O O O O ",
"O O O O O O O $ 4 4 4 6 6 6 6 4 6 6 6 , e V g ' ~ 2.w.L ;.o.@.L [ V f 9 9 9 9 9 9 9 9 , , , , 6 Z S Z 4 4 4 4 4 $ $ $ O O O O O ",
"O O O O O O O $ $ $ 4 4 4 4 4 4 6 6 6 , ; ^ h F ' >.+.@.L ;.o.=.[ ! f 9 9 9 9 9 9 , , 6 , 6 w V H  .I D 6 4 $ $ $ $ $ O O O O O ",
"2 2 2 O O O O $ $ $ 4 4 6 4 4 4 4 4 4 6 ` *. .g &.#.+.@.L L @.o.&.V f , , , , , 6 6 6 , - N H ..X. .%.X 6 $ $ $ $ $ $ O O O O 2 ",
"* ; ; 2 2 $ $ $ $ $ $ $ 4 4 4 4 4 4 4 i %.0.) [ #.#.+.@.L L L @.=.N U 6 6 6 6 6 6 6 C E H ..X. .I B y 6 $ $ $ $ $ $ $ O 4 4 2 ; ",
"* * * ; 2 2 2 $ O $ $ $ $ $ $ $ $ 6 6 1 { i.S &.#.#.+.L L 6._ _ L e.u 6 6 4 4 6 * B ^ .. .] I ` X 6 $ $ $ $ $ $ $ $ $ 2 2 2 ; * ",
"= = = * * i i i = $ $ $ $ $ 6 $ $ $ 6 w ^ X.,.+.#.#.=.L 6._ _ _ _ +.1 6 6 6 2 ` H 7.I I B d i 6 6 $ $ $ $ $ $ $ $ 2 2 2 * 7 X = ",
"u u u u * i i i w ; 2 O $ $ 6 6 $ $ $ q ..( a.>.o.#.@.6.6.6._ _ _ ;.U 6 O d V ^ 9.7.B 1 $ 6 O 6 $ $ $ $ $ $ $ 2 ; ; ; ; * X u u ",
"u u u u * i i i w u 2 2 $ $ $ 6 $ $ $ d X.0 u.F v [ &.w.o.o.o.w.&.8.,.W N H ^ %.` D 6 6 4 O O O O O O O $ $ 2 ; ; ; ; ; = u u u ",
"= = u u u * i ; s * ; ; 2 $ $ $ $ $ 6 E X.4.<.k M M F M M M M F F M | K H N Z * 6 O O O O O O O O O O O 2 2 i ; ; ; ; * s X X X ",
"= = u u u = * * ; ; ; ; ; ; 2 2 $ O 6 ` H ..{ g F ' 2.~ M M M F 2.~ j ! w $ 6 O O O O O O O O O O O O 2 2 i i ; ; * * u X X X X ",
"s = = u = = = = = * * ; ; ; ; ; 2 2 O O d ! l M F ' 2.3.| g g F ~ ~ k B 6 O O O O O O O O O O O O 2 2 2 i i i ; * * = X X X X X ",
"X s = = = = = = = = = * * ; ; ; ; ; ; 2 6 N g F F ' ~ V 2 | M F ' ' g N 6 O O O O O O O O O O $ 2 2 i i i ; * * * = s X X X X X ",
"X X X s s = = = = u u u * * * * ; ; ; ; 2 d Q z M F F V 9 V M F F g k ` 6 2 O O O O O O O $ 2 2 2 ; i i i * * = = s X X X X X X ",
"X X X X s = = = = = = = = * * * * * ; ; ; 2 S 7.H h | ` 6 B k k T 7. .D 2 2 2 2 2 2 2 2 2 2 2 i ; ; i * * = u X X # # # # # # # ",
"X X X X X X s s s s = = = = = * * * * * ; W O.0.p.W s 2 2 = d W ..0.) - 2 ; ; ; ; ; i i i 2 2 i ; ; * = u X # # # # # # # # # # ",
"+ # X X X X X X X X X s s s = = = = * i w ..0.( B C i i 2 2 6 d O.4.] C * i ; * * * ; ; ; ; ; ; * = u X X X # # # # # # # # # # ",
"+ + + # X X X X X X X X s X s s s = = i B *.-.W + * * * * * 2 d O.0.] X i * * * * * * * * i i # 7 X X X X # # # # # # # # # # + ",
"+ + + + # X X X X X X X X X X s s s = # ! ..I E i * * * * * i w { r.,.N Z = = = = = = = = = - d D C # # # # # # # # # # # + + + ",
"+ + + + + # X X X X X X X X X X X s X V 5 +.=.y.` * = * * * ; W ~ [ [ ~ 3.W = = s s s s s u 1 w X # # # # # # + + + + + + 7 y 7 ",
"+ + + + + # # # # X X X X X X X X s Z j ~ 5.&.&.V X u u = = ; N 2.d.d.2.5.[ Z = s s X X X C D q # # # # # + + + + + + + 7 7 - - ",
"q q q q q q q + # # # X X X X X X X w S N V 8.x V q X X X s = E j j 3.3.3.v W s X X X X X C C # # # + + + + + + + + 7 7 - - - - ",
"y y q q q q q q q q # # # # # # # # X s s X # 7 y X X X X X X D a S D 1 1 w + X # # X X # # # + + + + + q q + + 7 7 7 - - - - - ",
"1 - 7 + + + + q q q q q + + + # # # # # X X X X X X X X X X C u Z E ; X X X X # # # # # + + + + + + + y y y 7 7 7 - - - - - - 1 ",
"1 1 1 - 7 7 7 + q q q q + + + + + + + + + + + # # # # # X X X X Z S * # # # # # # + + + + + + + y y y y y y 7 - - - - - 1 1 1 1 ",
"w w 1 1 1 - 7 y y q + + + + + + + + + + + + + + + + + + + + # C Z S * # # + + + + 7 7 7 7 7 7 7 y y y y - - - - 1 1 1 1 1 1 1 1 ",
"w w w w 1 1 1 - - y 7 7 7 + + 7 7 7 7 7 + + + + + + + + + + + + m S u + + + 7 7 7 7 7 7 7 7 - - - - - - - 1 1 1 1 1 1 1 1 w w w ",
"w w w w w w w 1 1 - - - y y y y y 7 7 7 + q + + + + 7 7 7 + q y m S u 7 7 7 7 - - - - - - - - - - - - 1 1 1 1 1 1 1 1 1 w w w w ",
"w w w w w w w w w 1 1 1 - - - y y 7 + + q y y y y y y y y y y y m S D - - - - - - - - - - - - - 1 1 1 1 1 1 1 1 1 w w w w w w w "
};
