/* XPM */
static char *_d0c5eb42bff4dc4a006b2e8931d9321[] = {
/* columns rows colors chars-per-pixel */
"64 64 163 2 ",
"   c #222931",
".  c #232A32",
"X  c #242B33",
"o  c #252C34",
"O  c #272E36",
"+  c #293038",
"@  c #2A3139",
"#  c #2B323A",
"$  c #2C333B",
"%  c #2D343C",
"&  c #2E353D",
"*  c #2F363E",
"=  c #30373F",
"-  c #313840",
";  c #323941",
":  c #333A42",
">  c #343841",
",  c #353942",
"<  c #343B43",
"1  c #373B44",
"2  c #353C44",
"3  c #363D45",
"4  c #373E46",
"5  c #393D46",
"6  c #383F47",
"7  c #3A3E47",
"8  c #3B3F48",
"9  c #394048",
"0  c #3A4149",
"q  c #3B424A",
"w  c #3D414A",
"e  c #3C434B",
"r  c #3E424B",
"t  c #3F434C",
"y  c #3D444C",
"u  c #3E454D",
"i  c #3F464E",
"p  c #40444D",
"a  c #41454E",
"s  c #40474F",
"d  c #42464F",
"f  c #434750",
"g  c #414850",
"h  c #424951",
"j  c #434A52",
"k  c #444851",
"l  c #454952",
"z  c #444B53",
"x  c #464A53",
"c  c #474B54",
"v  c #454C54",
"b  c #464D55",
"n  c #474E56",
"m  c #484C55",
"M  c #494D56",
"N  c #484F57",
"B  c #4A4E57",
"V  c #4B4F58",
"C  c #495058",
"Z  c #4A5159",
"A  c #4B525A",
"S  c #4C5059",
"D  c #4D515A",
"F  c #4C535B",
"G  c #4E525B",
"H  c #4F535C",
"J  c #4D545C",
"K  c #4E555D",
"L  c #4F565E",
"P  c #50545D",
"I  c #51555E",
"U  c #50575F",
"Y  c #52565F",
"T  c #535760",
"R  c #515860",
"E  c #525961",
"W  c #535A62",
"Q  c #545861",
"!  c #555962",
"~  c #545B63",
"^  c #565A63",
"/  c #575B64",
"(  c #555C64",
")  c #565D65",
"_  c #575E66",
"`  c #585C65",
"'  c #595D66",
"]  c #585F67",
"[  c #5A5E67",
"{  c #5B5F68",
"}  c #596068",
"|  c #5A6169",
" . c #5B626A",
".. c #5C6069",
"X. c #5D616A",
"o. c #5C636B",
"O. c #5E626B",
"+. c #5F636C",
"@. c #5D646C",
"#. c #5E656D",
"$. c #5F666E",
"%. c #60646D",
"&. c #60676F",
"*. c #62666F",
"=. c #616870",
"-. c #626971",
";. c #636A72",
":. c #646871",
">. c #646B73",
",. c #666A73",
"<. c #676B74",
"1. c #656C74",
"2. c #666D75",
"3. c #676E76",
"4. c #696D76",
"5. c #686F77",
"6. c #6A6E77",
"7. c #697078",
"8. c #6A7179",
"9. c #6B727A",
"0. c #6C7079",
"q. c #6D717A",
"w. c #6C737B",
"e. c #6E727B",
"r. c #6F737C",
"t. c #6D747C",
"y. c #6E757D",
"u. c #6F767E",
"i. c #70747D",
"p. c #71757E",
"a. c #70777F",
"s. c #72767F",
"d. c #737780",
"f. c #717880",
"g. c #727981",
"h. c #737A82",
"j. c #747881",
"k. c #757982",
"l. c #747B83",
"z. c #767A83",
"x. c #777B84",
"c. c #757C84",
"v. c #767D85",
"b. c #777E86",
"n. c #797D86",
"m. c #787F87",
"M. c #7A7E87",
"N. c #798088",
"B. c #7A8189",
"V. c #7B828A",
"C. c #7C8089",
"Z. c #7D818A",
"A. c #7C838B",
"S. c #7E828B",
"D. c #7F838C",
"F. c #7D848C",
"G. c #7E858D",
"H. c #7F868E",
"J. c #80878F",
"K. c #838790",
"L. c #818890",
"P. c #828991",
"I. c #838A92",
/* pixels */
"1 G ' ...... .K K (  .( (  .$. .$.' h h W '  .$.^ Z $.( (  . .$.G u ( ' Y ^ ( =.$.n ( h.y.0.l.s.0.2.=.2.=.7.=.*.( q K ( ( $.' Z ",
"5 T ..{ ' /  .K K $.s.h.0.7.y.h.s.7.Z h '  .( ( K ( 2.y.h.y.c.y.K Z $.' Y $.y.l.c.=.$.>.>.2.y.s.h.h.h.y.7.c.c.h.7.u K  .( ( ( Y ",
"w ' ..' ^ ..2.=...7.l.h.h.m.l.7.h.h.G z $. .( =.=.*.h.l.l.h.y.y.( K ( $.h.c.h.h.c.c.l.c.V.m.y.7.y.l.c.h.7.h.h.l.V.z W $.( ..=.=.",
"p ..{ ^ ^ <.c.l.7.h.c.h.h.h.s.7.7.h.K n $.^ ' l.c.2.c.h.h.h.2.l.*.Z  .=.h.h.h.c.s.l.y.7.s.h.s.h.s.y.h.c.l.l.7.y.V.n ( ' W 5.h.y.",
"p ..^ Y / 0.c.l.s.7.0.l.c.h.h.c.s.F.( Z  .Y  .c.h.s.0.h.c.h.l.c.7.n =.2.7.y.h.h.y.h.l.c.h.h.h.h.c.s.7.h.c.m.y.h.m.n ( ^ W 0.c.h.",
"p ..^ / ..s.l.s.s.y.7.7.y.c.c.h.l.I. .Z ' ( =.h.h.h.s.7.0.c.h.m.7.Z ' =.F.h.2.y.h.y.h.l.y.y.h.h.h.l.y.2.>.0.y.V.c.h ( ( ( y.l.l.",
"p ..' ..*.l.c.h.y.m.m.0.2.7.h.h.c.m.Y Z '  .7.h.c.y.l.7.5.c.y.J.$.W ( =.F.*.*.V.h.h.l.c.l.h.l.l.h.c.h.7.2.7.7.V.l.h (  ...h.h.c.",
"p +./ ..*.s.h.l.h.y.0.h.h.5.>.5.V.s.Z K  .^ 5.c.l.h.y.h.y.2.2.V.( Z  .7.0.W h.h.h.c.h.s.l.l.h.h.c.y.5.y.c.l.2.y.s.h ( ( ..h.h.h.",
"p +.......>.A.y.h.h.5.h.s.y.5.2.c.c.n Z $. .$.l.c.h.y.y.h.5.2.V.( Z ' ( K  .m.l.y.2.V.l.l.s.l.c.h.0.h.2.7.h.y.s.h.h  .( $.2.V.y.",
"c { Y ^ ^ ' l.I.s.c.s.h.y.s.s.h.V.A.W K ' K W 2.V.c.h.h.y.s.c.I.$.M ^ Z K Y $.h.h.s.l.y.h.c.h.y.5.l.m.h.y.V.y.0.F.n ( W W ' l.F.",
"M { ^ ' +.' >.V.h.c.l.l.s.h.s.c.c.h.G Z  . . .=.V.h.l.c.h.h.l.h.=.h *.( ( W ^ *.y.h.y.7.h.l.y.7.h.y.5.h.h.h.y.V.7.h W '  . .y.A.",
"1 G G G Y G Z G Y Z Z Z Z Z n Z K K 2 5 Z K K Z K Z M Z Z Z K W q o Z M n G Z Z n M n n Z h K W Z W W G Y n G W M q Z K K Z Z K ",
", f p , , w n h u q w * 2 p q w 2 h z h h u p 5 : h h u p u h n u h Z h n Z h n M z n h q # W ^ K K Y W $.'  .' =...=.$.$.$. . .",
"8 T ....^ ^ $.(  .$.*.u p  .' ( M W .... .(  .M h $. .W $.=...K 7.h.y.h.0.7.>.>.=.=.2...G *  .K ( W ' y.l.V.l.m.c.y.h.y.c.l.l.m.",
"t ' ' ' ^ ^ 2.7.7.0.y.h p  . . .' ( =.5.7.s.h.( n  .^ ( =.y.s.$...=.7.h.y.s.h.y.7.h.l.h.$.: ( K z  .l.c.5.h.h.y.l.y.h.y.l.0.y.h.",
"w *.' ' *.+.h.c.m.s.s.n n ..'  . ...h.m.h.h.h.' K  .=.h.h.h.V.s.h.V.c.5.s.h.s.c.2.h.s.V.2.2  .=.$.$.c.h.0.h.c.l.c.h.c.7.y.5.h.l.",
"h  .K 2.m.s.s.c.l.7.h.Z M $.W 7.c.2.l.c.h.s.0.$.Z  .7.l.h.h.c.h.0.y.h.h.y.h.l.h.h.c.7.y.y.2 ( >.V.( 0.c.h.l.c.h.h.l.l.h.y.s.s.y.",
"p ..W 7.l.0.y.h.l.h.V.W Z ' W 7.c.y.h.a.l.l.l.7.Z ( 7.y.V.s.h.h.c.y.s.c.h.y.y.s.c.c.0.h.7.2  . .F.2.0.h.h.h.c.h.c.h.h.c.y.=.*.7.",
"h  .W y.c.h.y.y.y.c.F.^ G (  .h.h.h.0.7.h.h.m.0.Z $.y.c.5.s.7.s.m.s.s.c.c.h.y.0.2.7.s.F.=.: ..$.h.y.7.h.y.y.h.y.h.h.l.h.s.y.s.h.",
"z  .( s.c.c.y.0.s.l.F.K Z (  .l.h.c.y.y.h.h.V.2.n ..c.h. .h.l.c.h.h.h.h.h.c.h.7.2.2.2.A.>.2  .$.y.c.y.l.h.h.h.h.s.c.h.0.y.c.c.y.",
"h  .$.h.h.h.y.s.7.2.V.M Z $...c.l.h.y.s.7.7.V. .Z  .h.$.5.h.c.h.h.h.h.h.h.l.h.7.h.h.2.h.=.2 ' $.h.l.h.h.h.l.7.h.c.s.y.h.l.h.h.h.",
"z  ...7.l.h.y.y.2.=.m.n Z *. .y.c.y.y.y.>.2.V.( K  . .K h.c.7.y.c.h.h.c.h.y.y.y.5.m.s.h.=.: ( ..>.7.c.V.h.y.7.m.0.5.0.l.h.7.7.c.",
"n ' ( $.c.c.h.y.h.y.F.Z K ' W $.F.l.l.l.y.y.F.=.n W M K =.l.7.l.l.h.h.h.y.y.s.h.7.h.0.h.7., ^ ( Z ( >.5.$.( =.7.s.h.c.h.y.0.y.y.",
"z ( (  .m.c.l.c.h.l.F.G K ( ( $.V.c.c.l.h.h.V.=.K (  .W Y $.h.s.y.h.h.y.y.h.c.h.c.h.l.V.2.  K $.^ ( (  .( W y.2.=.>.=.$. ...$.$.",
"u W W G ^ ( ^ Y W ( ( w u Y ^ K W  .W W ^ ( $.u * W Z K ( W K K K W W ^ ( ( ^ W Y W Y ..u   q q w q : 2 h q w q q u w q u u w u ",
"o q w q q 5 q q 2 q 2 # 5 w q u 5 2 : w 2 X 2 5 # u q q = * , 2 2 , n K K K Z W ( $.( ( .. .$.$.=.( 2 K ( W W ( W ( ( ^  . .( ' ",
"2 Y (  ...'  .$.$.7.5.7.y.( G ( ^ ( W ' W w K K ( W ( ' n Z W W Z 2 W  .(  .' h.I.c.c.c.l.y.h.c.V.s.z ( ( W W ( y.h.l.h.c.c.h.h.",
"u =.7.h.y.0.s.h.c.c.7.5.>.W ..s.2. .K (  .p ..7.2. .=.=.K  .$.$.' 2 W  .W ( $.V.h.s.l.h.7.y.h.y.F.h.Z K K Z  .y.y.h.h.h.h.h.y.y.",
"h h.c.c.y.7.h.h.7.7.7.l.s.7.h.h.h.7.=.$.( n 7.c.c.l.c.2.W ( W (  .q W ..' $.7.c.l.V.7.7.l.0.2.=.c.=.n  .$. . .V.h.h.h.l.h.l.l.h.",
"n V.s.y.s.h.h.h.y.s.h.c.0.s.c.h.s.V.c.*.W Z y.2.0.c.c.y.7.y.$. . .u Y  . .$.h.h.h.s.5.h.h.2.7.y.F.7.h ( ..s. .h.l.h.h.l.h.h.l.h.",
"n V.7.0.c.m.h.h.h.h.c.l.7.h.h.l.c.h.y.=.( Z c.h.h.c.h.s.h.c...G $.h W ( ( $.h.h.h.h.V.h.=.0.V.y.c.c.Z  .=.I.>.2.c.h.l.c.h.h.l.h.",
"u A.h.h.c.y.2.s.c.h.s.h.h.c.7.y.y.y.h.=.( K A.a.h.l.0.0.h.c.>.(  .u ^ ^ ( $.y.h.l.7.y.2.0.V.l.h.c.V.K ^ $.c.7.7.h.y.s.l.h.h.l.h.",
"p l.c.7.$.=.h.m.h.h.h.l.l.h.h.h.7.*.I.*.( G V.l.c.7.7.c.h.l.5.( ( u K *.W W 2.c.c.7.y.c.h.h.c.l.c.h.n W *.y.y.c.h.h.s.s.l.h.h.c.",
"u V.7.7.c.y.s.h.c.h.h.l.l.h.h.l.l. .c.=.( K s.m.7.7.h.h.h.c.5.( $.h Z ..W ( 7.m.7.7.h.l.y.h.y.2.7.7.n ( 2.c.h.h.h.c.h.y.h.h.h.y.",
"5 c.5.h.h.>.h.7.l.h.h.l.h.h.s.s.c.$.$.=. .n 7.2.2.y.y.y.s.V.>. .' u Z $. .^ ( ' W $.y.c.c.m.c.y.h.5.n W ' >.y.V.l.l.0.h.l.h.s.5.",
"p c.7.h.h.2.c.7.y.s.h.l.h.h.y.y.h.=.M W W n F.l.7.s.7.h.h.V.( ( $.h n  . . . .' W ' $.=.>.>.0.h.0.$.h ( ( W  .7.h.=.^ 2.0.7.s.h.",
"h A.l.h.m.h.c.c.y.s.h.c.c.l.h.s. .W W W ( Z c.c.h.c.h.m.V.h.^ ^ W q u Y '  .( ^ n W  .$. .^ ( ^  .K q ( ..^ W ( ..( ^ y.h.7.7.7.",
": *.7.2.*.=.2.2.=.=.=.*.$.$.$.$.' ( ( ( W w >.7.=.=.2.=.5. .( ( ' h q 2 2 2 : : : u p u q u h 2 2 q # 2 q w u w u u u p 2 u u p ",
"  2 u h : 5 z q u u u q q q q q 5 u 2 h u o u q u 2 2 n K z G Z Z n M Z G Z n n z G Z M n n M * 2 Y M Z M n Z M M Z Z u : Z Z n ",
"q ^ Y K w 2 Z ( W ^ ( ( (  . . .=. .W W K W K Y W n h m.c.y.y.0.y.y.h.y.y.y.0.y.h.5.' ' (  .*.Z  .V.h.h.l.h.c.c.$. . .K Z c.c.h.",
"u W ( $.u z =.7.y.7.7.y.y.h.c.h.0.7.K ..7.$.W K $.G W A.0.c.l.h.c.y.0.s.l.h.h.c.s.l.7...W n W M $.I.y.y.l.h.y.F.=.Y W W Z F.y.l.",
"M 2.( $.n Z V.m.c.7.0.c.h.y.y.2.0.0.2.s.c.h.2...$.Y K h.2.l.y.2.y.s.h.h.h.h.h.h.7.y.c.7.Y ( ' K ^ V.=.y.h.7.h.c.0... .Y h c.2.7.",
"K V.>.$.n Y F.7.y.y.s.l.c.s.0.l.V.0.h.h.h.c.c.h. .W G l.7.h.l.h.7.y.l.l.h.l.c.l.h.s.c.2. .y...K ( V.2.y.y.7.h.h.h.=.$.K h c.5.7.",
"n c.7. .n W V.5.c.h.c.c.0.s.c.h.l.0.l.h.h.h.h.y.$.( K A.y.2.5.0.h.l.c.h.h.h.h.h.c.h.h...y.c. .K ..V.h.y.7.c.c.l.h.$. .K M F.s.h.",
"z s.7. .M K V.l.h.c.0.5.l.c.y.h.7.c.c.y.h.y.y.y.$.^ G J.c.7.2.=.y.s.h.l.h.h.h.c.7.s.s.2.m.h.' K 2.V.c.h.5.h.y.l.c. .( K K J.h.h.",
"h V.h...M Z I.y.7.=.2.s.l.c.c.h.h.V.s.y.h.>.7.J. .^ Y V.y.l.l.h.7.y.h.c.h.y.h.c.y.s.y.c.y.7. .G 2.V.y.V.h.7.y.h.h.( ( K K V.y.h.",
"u y.h. .Z Z I.7.7.y.0.y.c.h.y.c.c.h.s.c.m.2.$.V.$.^ ( V.2.y.h.c.h.h.h.h.s.s.y.y.m.h.y.c.y.7. .Z  .h.7.m.c.s.y.l.5.W  .K M l.y.l.",
"Z ..7. .Z n s.y.l.l.y.7.s.c.c.h.h.h.c.s.s.c...=.=.K ( I.y.l.y.y.c.h.7.7.h.V.m.s.h.h.c.s.m.7.( K ( y.h.h.h.c.=.=.=.^ $.Z h y.0.c.",
"^ ^ Y ..z Z c.0.l.0.7.c.5.l.A.s.h.h.y.7.h.l.$.Z W ^ K h.h.c.7.y.c.h.h.l.2.2.2. .=.m.l.0.' W $.M Y l.h.s.0.y.( ^  .^  .n p y.c.y.",
"p ^ M ' n W I.0.c.c.s.c.l.0.0.l.c.c.m.c.y.$.G K ( K h $.=.0.5.7.>.5.s.y.h.h.l.=.K =.$.( W ' *.n G =.$. . .$.W Y  . .$.z q $.$. .",
"w +.{ ..5 : 7.s.>.7.2.2.0.5.5.d.2.>.2.*...( W  . .K u n M K Z Z W G G G W K G Z n K Z h z Z M 2 q h p n G K n 2 p p n 5 : n z n ",
", M M G u u Z n Z n M Z V G p p Z n M n Z G n z n z u u u p h z h h z h p n $ : n z h h h h u h h n Z z q : h h p w p u u h u n ",
"f 5.s.0.2.s.s.7.l.=.W  .^ T p +.c.7.2.2.2.2.5.y.7.0.s.0.7.5.5.5...^ (  . .$.u  .h.0.0.y.y.y.y.V.=. ...( Z n 0.l.h.y.y.y.l.h.y.h.",
"M A.m.d.h.h.c.c.V.m. .W ^ ' z D.h.s.c.c.c.c.h.y.7.7.h.h.l.c.h.h.y.$.( M K ^ n =.J.c.h.h.h.l.c.V.2.W K ( W ^ m.V.h.h.y.0.l.l.m.l.",
"w l.l.r.s.7.5.h.0.V.2.( ' ..w d.y.y.h.7.2.s.s.7.c.l.c.h.h.h.7.7.s.c.$.Z K  .W K A.y.7.y.y.s.l.l.h.*.( ..Z n s.A.7.y.y.0.y.7.h.y.",
"f d.s...5.V.5.s.c.c.0...{ ' p s.y.7.c.c.0.7.y.c.h.h.l.l.h.c.y.h.c.c.W 7.2. .K W V.2.=.s.y.7.s.l.c.>.' *.G z 7.V.=.=.5.h.h.>.h.c.",
"z A.l.l.2.7.c.h.h.h.h.$.' ' z s.c.2.2.y.0.y.h.c.l.l.h.h.h.c.l.h.c.2...V.7. .Z ..F.c.y.>.y.c.y.h.N.2. . .K Z V.V.h.c.y.>.0.c.c.h.",
"G A.d.m.l.7.y.h.l.c.h.' ' / p s.V.h.y.2.=.y.l.h.l.s.h.c.c.h.y.0.h.2.y.V.2...M 2.V.h.h.y.0.h.y.c.c.2.( ( Z W F.l.h.h.y.y.s.s.s.l.",
"M K.l.s.h.h.y.7.s.c.7.W ' ' f x.c.y.h.h.y.y.h.h.s.c.h.y.c.l.y.h.h.7.h.c.=...Z 2.F.s.c.l.7.0.y.h.h.=.^ ( Z ' J.h.c.c.h.h.y.7.7.h.",
"V x.0.s.c.h.h.h.h.c.7.W ../ z A.h.2.y.V.m.s.y.l.h.l.h.0.7.s.l.s.h.c.y.l.=. .K  .c.7.h.c.l.c.s.h.h...^ ..Z K h.y.0.h.c.h.h.l.h.y.",
"p 5.0.s.h.h.c.7.*.2.$.W ..^ p m.h.h.h.y.y.l.h.s.0.5.m.J.h.l.V.s.h.V.h.h.=. .G ^ 0.7.y.h.c.h.$.=.2.( ^ $.n M 7.h.2.y.c.h.l.c.7. .",
"z i.m.l.s.l.c.$.W '  .' +.Y t 0.c.m.c.7.7.c.c.h.h.y.2.2.5.$.=.V.c.0.2... .$.n W c.c.c.s.h.0.'  . .'  ...z Z 7.h.c.c.c.l.h.y.>.^ ",
"p ' +.>.=.(  .( Y (  . .' H 5 ' 2.5.7.2.5.7.7.0.y.c.7.7.h. .Z >.7. .W G ^  .h Z *.$.*.'  .$.W G (  . .( u z  .$.=... . . ... .W ",
", Y G M W K (  .u h Z Z V c 1 G K W ' ( ( ( ^  .'  ...$...^ W W Y W Z W ' K u u K M Y K K  .K w n Z Z F q u Z K K K Y W Y ( ( G "
};
