/* XPM */
static char *b1ad890cca13412d9e9acfb3b021d832[] = {
/* columns rows colors chars-per-pixel */
"64 63 69 1 ",
"  c #7B874F",
". c #FABB48",
"X c #79844D",
"o c #A2AC5E",
"O c #9DA75B",
"+ c #76814B",
"@ c #97A05A",
"# c #7E8A50",
"$ c #FABE4A",
"% c #9BA45A",
"& c #A0A95C",
"* c #838F52",
"= c #8C9656",
"- c #A6AE5F",
"; c #F9A43C",
": c #879255",
"> c #757E49",
", c #828D50",
"< c #727B46",
"1 c #ADB563",
"2 c #B1B866",
"3 c #B7BF69",
"4 c #FAA63D",
"5 c #6A713F",
"6 c #F9B946",
"7 c #6D7644",
"8 c #B3BB67",
"9 c #F9B644",
"0 c #AAB161",
"q c #8C9250",
"w c #949D58",
"e c #909955",
"r c #E2A243",
"t c #EEAE46",
"y c #DD9B40",
"u c #C57A35",
"i c #838848",
"p c #E8A945",
"a c #656C3B",
"s c #F3B347",
"d c #7D8043",
"f c #F9AB3E",
"g c #C88238",
"h c #BD7634",
"j c #5F6536",
"k c #D48335",
"l c #D8953E",
"z c #B96E32",
"x c #E59037",
"c c #C37231",
"v c #77773E",
"b c #C79444",
"n c #D18939",
"m c #EB9A3A",
"M c #DD8A36",
"N c #575B2F",
"B c #D4903C",
"V c #FAB341",
"C c #FBC952",
"Z c #B28C46",
"A c #969B54",
"S c #F0A03C",
"D c #9B8749",
"F c #D49C44",
"G c #FAAE40",
"H c #CF7C33",
"J c #977C43",
"K c #AB8342",
"L c #E77B2F",
/* pixels */
"vqiii,i5jviqq,iiiivvaavvddddddvjj5vi=qi,qidadiiidddddajdddddv5aN",
"O-o&&O%%&e&-00000-OedA-00111111-A%o1282110%q%-0000-OAq,o&&&%q,*v",
"@o&&&&OO%@000112211-i&111111111-A018888821-=o0011100-ei&o&&&@*,d",
"eo&&&ooow@1128338888A08222222881A0883833380=028888221%iooo&&Oe*d",
"eo&oooooA%2883833333@13338888338A8333333332w288888882-q10-o&OOw<",
"@oo-0000@O3338383333w-3333333338%3333333338@8333333381=2821oOO%v",
"@-&&--00@%2222222228qe0233888882@8222222222e121211111-*0110&%@@5",
">q,q,<>>7di,qq==eeq=:e=,iq@@@@@eXwwweeeeeee#,iq======*7q==q,,#ij",
"w%%&eA%%id@&&&oooo&&oooo%A@&---%=0--------oo&%A%&&&&&%q22220-o&d",
"A%%@%022Oeo&&oooooooooooo-O%%@AqiA@%&--ooooooo&w@&&OO@q288810-od",
"=%%-1222&@&O&&oooooooooo%AZZbbbFFrFZZDq%ooooooo&ew&OO@q288820-o<",
"q%&-1222&@&O&&&&oooooo@DbrprlnggggnlrrbKDA&oooo&O==%O@q288821--v",
"dAO01222&@&OO&&&&&oo@DbpygzcukMMMMkHccgypFDA&&&&&oeiqAq282221--v",
"vwo01222&@OOOO&&&&%qbplhckm;4fffff44;mMchBrZD%&&O&OeX>#222221--d",
"<O-01112O@OOOOOO&@Zrrhcx;fVV996669f;;44;xczFpZ@&OOOOOA:122210-oi",
"io-01112OwOOOOOOAZpBzM;fV66699Vttf44;;;44;MzBtZAOOOOO@:11111-o&i",
"qo-00111Ow%%%OOAZtgcm4f969plnnkhhhuxmm;4;;4mcgsZeOO%%w*11110oo%d",
",oo-0011%A%%%OwKtguS44G9pnhhgByrryBghhgm;;;4;uhrZe%%%w*11110o&ed",
"5A%O&o-0@e%@%@DFgcS;;;4muuyt$CCCCCC$syuhnS4;4;ugFD@%%w,000-O@qiv",
"ai,qqqqqiq%@%DbBcS;;;;Mhls..$CCCCCCCCC6yhk;4VV;cgrD@%w>=eeqi>vvj",
"iie%OoooA=%%eZyzm4;;;khy.....$$$CCCCCCC.tuk;V6VSzrbe%w,oo-&%@Aqv",
",q%O&---wq@@Druk4;;;nhr6.......96$CC$$...sgk4V6GMhtZ@w#---o&&O@<",
"e&OO&---A,w=byzS4;4xzF....tr...yl...pp....suMf994cyF=w,o--o&&O%v",
"q&OO&oo-eX@Dpuk;;;Shy66...py...tt...rr.....FzmG6GxhtDe,oooo&OO%v",
"*OOOO&ooe,eZpzm4;4kB.6.....sr9.66.6ps......6nH49V;zrbq,ooooOOO%5",
",OOOOOooA:qFBcSG4mut.......rhp.yB9sgy.......thmG94kgri,ooooOOO%5",
"d%%OOO&oe*DphkG94Mn....sr6.9t99lns6t9.6rt...sgk49fmzpD,ooooOOO%5",
"<@%%OOO&e#Dpzm99;ur.s6.pns9s9lkyrxB9s96Br....ru;VfmzpK#&o&&O%O%7",
"7@@%OOO&= ZrzS99Sus6s...6.lMyMLcMxcykn66.....sumVGmzyZXOO&O%%O%<",
"aw%%O&&&=XbycS66mg6.......rlyHLunLclnl........gxGVmclb>OOOOOO%ev",
"N>i,****>5bluS96xg...69.ts.yMcntpBgMn9st696.s.nMf9SuBbaqqq:,i+<a",
"5**:q===X<bBH499xn...pBsnl6nxLl$tpxLztyHtyr.t.BMf94HnF5===:,X><N",
"dew@@@%%q blH4GGxn...9s6pt.lkzl6srkLg9tr9ss...nMf9fkBbdO%@@@wq*j",
"i=w@@@@@q byu4;4xg6.......rlykLByMHylr........gxf9fHlb+%@@@@@w:a",
"i=e@@@@@: Zrc;GGmus......6BkyMLcMxLlnn6......9umf6fcyK+%@@@@@@e5",
"i:ew@@@@q#DpzS964up.66.ty9sttkHnlkuttt.yp....pu;fV;zrJX%@@@@@@e5",
" :=ew@@@*#DphxV6VnB.66.tl9.69spyBps9..6yp..6.lk444mzpJX@@@@@@w=7",
"X:=eew@@*#iFnHf66Sut66666..pnt.nHssky......6thx4;4kgbd @@@@@we=7",
"+*:=ewww# ,Zrz;V6Vgn6...6..tBs.st.9Br......sghS;;;clK# @@@@ww=:<",
"<,:=eeew#X*JphMf69Szy.....tr...ss...pp..6.6FzM;;4xzFJ, w@@ww=::>",
"7#:==eeeiX: byc;V6VMzt....tr...yl...rp...6phuS4;;cBbX, wwwww=::<",
"aX,:===e +*,DthMf96Gkgs....6...ss.....6..puHrV44xhFJ,,Xwwwwe=:#5",
"N7<X,**:+>** ZFzmf96fkut..........66....tgHf6V4SzlKX*#+ee:*#X+<N",
"N5557<<<a<***dFlc;f96fghy9...6s6....s66yhkf69f;unbv,,#7#XXXdd<5N",
"5+X #,,,>>,,,#DrhH;f96fMhgys.6s6....tyguxf99G;HupJ ,,#+====:*#>N",
"aXX #,**+>###, KtuH;G96GmMzhglyrrylnuux4V69G;HutKX,## +===e=:,XN",
"aX  #,,*+>    #XZphcSG969GSxghhuugkxm;G96VfSuutZ>#### +=e=e=:, N",
"7   #,,*+>      +JFgzxfV99f;;;;;;4444;fff4xzgtZ>####  +=====:# j",
"<   #,,*><       >JbFhum444;;;;;;;;;;44;muzypK+# #    >====:,##a",
"<X  ##,*<7        XvbtlhcMS;444444444SMcznpbJX#      X>::=:*###a",
"5XX   #,<7 XX       >JFpyuzcHMxxxxMHczhBFbKd         X<:::*### j",
"j+XX    <7 XXXXX      dJbrpyBguuuugBrrbKJdX          X<**,#  #+N",
"j7<+XX  77XXXXXX        >dJZbFrrrrFbZJv+ #       XXXXX7###   +7N",
"a77<+XX 77XXXXXXX XXXX    XX>>vvavv+X ##        XXX X+7 #   >75N",
"a577<>++75++++++X+XXXXXXXXXX   +5#+<>+++XXXXXXXXXXXXX+7  X+>757N",
"NaaaaaaaNNaa5555577755777<<<<>>7j>>7aa57<<<57777755555j55ajjjjjN",
"57<>>>>+55     #,,,*< ***:::==::>::::=::::*<######## X5+++>><75N",
"j<+++++X77  ##,,***:>#::::::===:>:::::::::*>*******,# 7X   XX+<N",
"j>+++XXX75   ###,,,*<#::::::::::<*::::****,<#,****,# +5XXXXX++>N",
"j>+++XXX55+X  ######5>******:::*7,**,,#### 5 ##,,# X+<5+XXX++++N",
"j>>+++++5a+++X  XXXXa5+ ###,,,, aX        >a>XX  X+>><a>++++>>>N",
"a>>>++++aj<>>++++>+<ja7<+      +j7+X  XXX+7j7>+++>>>><j7>++>>>>j",
"j57<<<75jj57<<<<<<<5Nj557<>>>><7Nj57<<<<75aja57<<<<75jNa57<<<77j"
};
