/* XPM */
static char *b2fbed6c52d04c328c0ab8910f3f96ca[] = {
/* columns rows colors chars-per-pixel */
"64 64 256 2 ",
"   c #9CA75B",
".  c #8B9759",
"X  c #99A35A",
"o  c #929F59",
"O  c #839154",
"+  c #7B8850",
"@  c #818F52",
"#  c #C69761",
"$  c #619392",
"%  c #C29661",
"&  c #608D8D",
"*  c #D9AC72",
"=  c #629191",
"-  c #5C8A8A",
";  c #6DA9A5",
":  c #69A5A1",
">  c #DBAF75",
",  c #699C9A",
"<  c #BE8F5C",
"1  c #649595",
"2  c #CDA169",
"3  c #97A25A",
"4  c #CC9962",
"5  c #9EA95C",
"6  c #C1935E",
"7  c #659A98",
"8  c #649896",
"9  c #67A29F",
"0  c #DCAA70",
"q  c #9BA55B",
"w  c #DDAD72",
"e  c #D9A76D",
"r  c #879355",
"t  c #CF9E66",
"y  c #243D3F",
"u  c #5A301E",
"i  c #D2A56C",
"p  c #D2A269",
"a  c #7F8D52",
"s  c #76422D",
"d  c #7D8B52",
"f  c #7D4831",
"g  c #623725",
"h  c #5D8F8F",
"j  c #E2B67B",
"k  c #75ACA7",
"l  c #6EACA8",
"z  c #CA9E66",
"x  c #659F9D",
"c  c #855F3C",
"v  c #70A6A3",
"b  c #727C47",
"n  c #E6B87D",
"m  c #7B5634",
"M  c #86653F",
"N  c #8D6943",
"B  c #88C6C0",
"V  c #DEB379",
"C  c #6FA19F",
"Z  c #633321",
"A  c #6D9F9D",
"S  c #D8AA6F",
"D  c #477473",
"F  c #DFB176",
"G  c #C89A63",
"H  c #A96644",
"J  c #7A4D2F",
"K  c #5F3D25",
"L  c #6B3926",
"P  c #394F45",
"I  c #D3A86F",
"U  c #C39A65",
"Y  c #D4AB73",
"T  c #B58A5A",
"R  c #72B1AC",
"E  c #77B5B0",
"W  c #B78E5D",
"Q  c #355B5A",
"!  c #BA9261",
"~  c #8F9D59",
"^  c #1F3437",
"/  c #B37852",
"(  c #BC7E57",
")  c #315454",
"_  c #A88156",
"`  c #AF8555",
"'  c #5B8586",
"]  c #AF7E52",
"[  c #4C4E40",
"{  c #274445",
"}  c #8E5135",
"|  c #552919",
" . c #9E744B",
".. c #4F2C19",
"X. c #76472E",
"o. c #8B563E",
"O. c #946F49",
"+. c #AB7350",
"@. c #7AB9B3",
"#. c #2E4A49",
"$. c #855337",
"%. c #93A35C",
"&. c #E2B477",
"*. c #482315",
"=. c #3F574F",
"-. c #284A4C",
";. c #A76F4B",
":. c #703E29",
">. c #D59E65",
",. c #879255",
"<. c #926440",
"1. c #DBA36B",
"2. c #3D6C6B",
"3. c #8F603C",
"4. c #A46142",
"5. c #A56A4C",
"6. c #824D36",
"7. c #99754D",
"8. c #925B40",
"9. c #E9BB7E",
"0. c #5E5F4F",
"q. c #B58557",
"w. c #6F5138",
"e. c #496D6B",
"r. c #BB9766",
"t. c #192C2E",
"y. c #EFC689",
"u. c #3E6666",
"i. c #6D4A2F",
"p. c #9D6E43",
"a. c #AE6C47",
"s. c #E7BD82",
"d. c #4F2516",
"f. c #6C9895",
"g. c #D0A772",
"h. c #874B30",
"j. c #B18860",
"k. c #66442A",
"l. c #3E6260",
"z. c #865936",
"x. c #B37149",
"c. c #9F5B3E",
"v. c #BC7855",
"b. c #9C6246",
"n. c #975E42",
"m. c #84BCB7",
"M. c #9E6746",
"N. c #7C5132",
"B. c #81B3AF",
"V. c #527D7C",
"C. c #83C3BC",
"Z. c #90D1CA",
"A. c #507978",
"S. c #8F7362",
"D. c #8DA16A",
"F. c #8C9456",
"G. c #3F1A0F",
"H. c #79A8A5",
"J. c #7C5B3E",
"K. c #47382D",
"L. c #6E4429",
"P. c #84935C",
"I. c #D7AD77",
"U. c #79AFAA",
"Y. c #A98660",
"T. c #527672",
"R. c #9E7950",
"E. c #4D614A",
"W. c #98D8D1",
"Q. c #2D4F4F",
"!. c #EDBF82",
"~. c #465E5A",
"^. c #A67B4F",
"/. c #535947",
"(. c #7DBEB8",
"). c #EFD299",
"_. c #8F9B58",
"`. c #849B6E",
"'. c #6B938A",
"]. c #965538",
"[. c #C7855E",
"{. c #4E827E",
"}. c #586A55",
"|. c #CAA475",
" X c #BD8A5E",
".X c #627961",
"XX c #463327",
"oX c #9D8461",
"OX c #E2AC70",
"+X c #AE936D",
"@X c #32413E",
"#X c #919C5A",
"$X c #7A936C",
"%X c #5A8181",
"&X c #768554",
"*X c #445445",
"=X c #9A8D82",
"-X c #402D21",
";X c #EFB575",
":X c #E4A76F",
">X c #7A9779",
",X c #98805A",
"<X c #C39E70",
"1X c #132427",
"2X c #F5CB90",
"3X c #34372F",
"4X c #464136",
"5X c #41483B",
"6X c #F6D9A0",
"7X c #65764D",
"8X c #93A86E",
"9X c #7B8F60",
"0X c #97C9BF",
"qX c #4F8684",
"wX c #A39891",
"eX c #8FC0BA",
"rX c #F5B975",
"tX c #523828",
"yX c #706B5A",
"uX c #2A130C",
"iX c #B88363",
"pX c #6F9E96",
"aX c #A6E3DB",
"sX c #75A49F",
"dX c #6C8560",
"fX c #676C44",
"gX c #EAB070",
"hX c #5A4D42",
"jX c #8D8652",
"kX c #5A4633",
"lX c #5A7266",
"zX c #7C654D",
"xX c #AEA06C",
"cX c #65806F",
"vX c #83A485",
"bX c #86B6B3",
"nX c #D5BE8A",
"mX c #918072",
"MX c #B99F83",
"NX c #E8CB99",
"BX c #A48B6C",
"VX c #F8E5AD",
"CX c #749C8C",
"ZX c #D28F60",
"AX c #8CB69A",
"SX c #E0996D",
"DX c #CB916D",
"FX c #D0C9C3",
"GX c #D4C4AD",
"HX c #88794C",
"JX c #C1ADA2",
"KX c #DEDAD5",
"LX c #8EAF89",
"PX c #E69D6D",
"IX c #8A9B59",
"UX c #C4B87E",
/* pixels */
"5 5   5 5 5 5 5 5 8XpXQ.8 E v ; ; ; : k R A y ^ ^ ^ ^ 3XyXS.zXxXBXF.3 5 5 @ /.{ y f.v 8 1 8 8 8 7 x (.aXW.vX  5 5 5 5 5 5 5 5   ",
"          5 5 5 %.0XW.{.Q l l l E @.@.; D ) y ^ 5X/.yXMXVX! N ).y.r.O.HXF.q X b 5XP A.v , 1 , A , A ; m.0XqXdXq 5 5 5           ",
"              X AXZ.W.Z.2.2.x : E (., l.#.y @XfXq nX6XVXVX! M NXy.2Xs.! O.M jXX 3 &X*Xe.U.v , C v k R 7 Q y ) dXq         5     ",
"            q LXC.E (.Z.@.Q 2.; v D { y y 5Xb UX).).y.y.6XW z.g.Y !.y.2XNX|. .,XjX3 3 &X.XpXv 7 C E l l.) V.l R $Xq             ",
"            8XC.@.: ; (.Z.x -.u.Q ^ ^ @X0.HXxX).!.9.9.n ).j.J g.j s.s.y.2X6X).7.S.oXjXq 3 &XT.= C 7 A.qXl C.Z.W.U.9X          q ",
"          5 AX@.l 9 9 ; B C.Q y y @XE.jXUXoX|.s.&.&.> n 2Xj.J g.&.n &.!.y.y.).7.GXNXj.O.F.5 ,.E.e.D l C.l l E @.C.cXo   q q q q ",
"q q         k ; : ; R E B h -.y P d xXnX6XY.|.n w * I j 2Xj.J 2 > F > &.n n y.,XGX6X2Xg.7.HX3 _.E.8 W.E x 9 R R (.$ O q q X X X ",
"X X q q q D.: 9 x ; (.Z.m.Q { y }.xXnX6X2XY.<Xn F * I &.y.j.X.2 * > > F w w s.R.nX!.!.).NXj.N ,.o vX(.: 7 x : : @.@.dXX X X X X ",
"X X X q q 8XR x x : l C.A Q.{ E.+XMXy.y.s._ 2 n F * S j y.j.J 2 * * w w * w n  .|.j 9.!.).6X|.O.jXP.C x 7 x 9 9 v Z.cXo q X X X ",
"3 3 X X X `.E x x : l @.{.-.~.+X+XxXn 9.s.^.2 n V * > j y.Y.J i > > > w w > n ^.# &.n 9.9.y.VXr.z.zX& : x , , 7 x Z.{.. q q X X ",
"3 3 3 3 X 9X9 ; 9 : @.E 2.-.}.BXoX+XV 9.9. .2 j &.* V V !.Y.J i > > * w * w n _ 6 > &.F 9.9.).+Xg K A.E ; 9 , : E W.{.9Xq X X 3 ",
"3 3 3 3 3 $X7 @.R l R R u.-.0.oX,X+XY &.&.O.<Xj &.> j V s._ J i > > * * * w n ` 6 > V * 9.n s.+Xg tXl.l x 8 1 x k : 2..XX 3 3 3 ",
"3 3 3 3 3 $XD D T.V.- {.Q -.0.oX,Xr.* &.V O.<Xj F F n F s._ J g.> F * * S S V ` % I.I.Y j n j Y.g tXP V.l.Q Q Q l.l.P + 3 3 3 3 ",
"3 3 3 3   0XW.B B.A = V.y t./.,X,Xr.> &.V O.U j V &.9.> s._ J g.F > I I I S > _ U g.g.|.Y > Y 7.g tX@XT.{.& $ 7 B U.P @ X 3 3 3 ",
"X X X X 8XZ.Z.B C.B Z.aXe.1X[ ,X,XU > j V O.U V F j 9.> s._ i.g.F * 2 2 2 z z  .T j.q.] ] ] ] ;.L *.*X9 ; (.; 9 (.m.{ E.3 3 3 3 ",
"3 3 X X 8Xk l ; : : R W.A.1X[ oXY.g.V V F  .U > F j n > s._ J Y F Y z # DXiXiX( / +.;.;.+.+./ / L g 0.R : R : 9 E H.{ P . X 3 3 ",
"3 3 3 3 D.k E l : ; R C.2.1X[ Y.r.> V F >  .U Y > j F > s.Y.N.Y > I < ( ( / ( / 5.b.n.b.M.5.;.+.g 6.yXR : ; ; : E sXy P r X 3 3 ",
"3 3 3 X D.U.@.; 9 ; R C.2.t.[ W z V I.Y I. .U I > > S * 9.j.m I.> p / H v.5.b.5.b.n.n.8.5.5.+.;.Z Z 0.@.; l l : @., y P . %.%.%.",
"o 3 3 3 D.U.E v 9 9 l C.e.t.[ ! z V g.2 Y  .! 2 * * S * s.j.J.I.> % M.o.o.f f 8.8.n.o.b.+.8.;.M.u d./.E l l l : C.$ ^ P . %.%.%.",
"o o o 3 D.k l 9 9 9 : C.D t.[ r.U > z % g.^.! z Y I I * n j.J.I.* ! <.8.6.s $.o.o.o.o.s s o.M.n.g s hXU.; l ; : B 1 ^ P IX%.%.%.",
"o o o o D.sX: 9 9 9 : C.D t.[ r.U I.% < 2  .` ! 6 U p e n j.J.I.* 2 R.N.J 6.$.$.o.o.o.$.$.8.8.8.Z :.hX; x : : x B f.y P IX%.%.%.",
"o o o o D.pXx 9 9 9 9 B e.t.[ r.% # ( / ( ;.;./ +.<.% I j Y.w.I.* Y r.7.w.i.k...K k.K g g g L L u | hXv 9 7 x x B , { P IX%.%.o ",
"o o o o D., 9 : : : : B u.^ [ r.q.( v.H H a.x./ [.M.p.2 j _ k.Y Y Y i 2 T R.O.K J.N M M m w.i.K ..u [ k ; 8 8 x C.f.#.*X~ %.o o ",
"o o o o `.pX: ; ; ; ; (.Q ^ [ r.+.c.4.c.H a.H 5./ ( 6.% j R.K Y I I i I 2 % ! N.^.! T r.W ` ` M ..-XP k ; 8 8 9 C.- { *X_.o o o ",
"o o o o . T.{.h 7 9 ; k ) ^ [ r.;.h.} 4.a.x.x.} M.( f 6 V R.K g.I I i I 2 U U 3.T U G I i t * W ..-X=.k x 8 7 : E V.y *X~ o o o ",
"~ ~ ~ o ~ 7X{ { { Q.Q 2.-.^ [ ! 5.} ].4.4.H H H a.v.J ! V 7.K |.2 i 2 i 2 U U <.W U 2 S U G &.r...-X*XA , x , x v D t./.o o o o ",
"#X#X#X#Xo . ~.#.#.#.#.Q.{ ^ [ ! <.:.f } } ].c.8.4.x.f ! V O.K |.z 2 z 2 z U U 3.< # 2 * S ] g.! | XX3X=.l.u.e.e.A.Q t.fXo o o o ",
"_._.#X#X_.8XB.v C k m.@.{.) 0.W J u 8.H 4.H ].Z ].4.s W V O.k.<Xz z U 2 z U % c < # 2 * w p 7.N | XX3Xe.= h = 1 & D Q.&Xo o #X~ ",
"_.#X#X#X#XLXC 1 7 : R R D { 0.] ;.b.5.f s H h.d.h.h.L T > p.L.U G # % z z z % z.6 % i * e * |.i.u XX=.C.m.; ; U.Z.W.{..X#Xo ~ _.",
"b b b b b >X, 1 $ $ , l u.5X5.a.+.+.L.G.G.s h.*.L L u  .< 3.L.] ] ] ] q.q.U W m 6 % i * S i n ` g XX~.H.h h 8 7 7 m.qXe.b b b b ",
"b b b 7Xb $XC 8 $ $ A k 2.7.ZX[.( n.| L f n.;.n.b.b.M./ ( ( v.v./ v.[.8.L.W T N.6 % i * S i w q.g K.~., h h h h h C qXl.7Xb b b ",
"_.. _._._.D.C A 1 $ v k cX:X:XPXSX$.Z s 4.v.[.[.DXDX XiXiXiX+.v.v.[.[.8.u _ T N.6 % i * S e w ` u XX~.8 h - - - - 8 V.Q.d #X#X#X",
". . . . . `.v v 8 1 U.k =XPXSXSX1.f u Z } c.a.MXJXJXGXFXFXKXY.a./ x.x.b.u R.T m 6 % i * S e 0 q.g XX~.1 - - - - - 1 V.#.&X. . . ",
". . . . F.`.H.v $ 7 R k oXv.( [. XL d.u s h.o.MX=XS.wX=XwXKXwX} 8.M.;.b.u O.` m < # i S * S 0 T L K.=.= & & - - - , ' #.+ . . . ",
". . . . . . sX7 = 7 ; v S.4.5./ 5.Z *.u s f 6.=XwX=XmX=XwXFX=Xs s n.M.o...N _ m < # p S w w 0  X:.K.=.h $ = & = $ H.D #.a . . . ",
". . . . . F.'.%XV.A.D u.zXn.M.5.b.| *.Z s 6.6.O.BXS.S.S.S.S.o.} 8.b.5.f u M 7.m < # p S w w 0  X:.K.P = $ 1 1 1 , , ) P O . . . ",
". . . . . D.>XV.D l.) #.hXf h.o.8.| *.u g X.L.X.6.6.f f f f 6.6.$.o.n.s k.c O.m 6 # p S w w 0  X:.K.P & = 1 1 & A.e.-.E.F.. . . ",
". . . . F.AXB C.B C.k , @XZ Z :.6.| *.uXuX*.*.G.uXG.*.K k.u *.K K K K k.w.M N m 6 G 2 S w F 0 q.:.K.@X~.l.~.=.#.y { =.d . . . F.",
"r F.F.. . CXC v v B aXB.t.-Xg L f :.d.G.G.d.*.G.uXG...w.m K *.i.k.i.k.w.m M M m % G p e 0 w e ] :.K.lXpXf.'.'.'.%XQ }.O . F.F.r ",
"r r r F.P.'.1 = = A C., t.1X-XN.L s | G.d.| | *.G.d.u m J.K ..m m m m J.c M N z.G G p e 0 w e ] L K.%XC A v B.eXaXH.-.}.F.r r r ",
"r r r r P.'.= & = = v & ^ 1X3XJ.g s :.u Z Z Z | d.u g m c K ..c M c J.M M N N c z z i S 0 w e ^.g K.& 8 $ 1 $ 7 m.0X-.P d r r r ",
",.,.,.r P.'.h & = = 7 ' y t.3XM :.g :.s X.s L ..| g g J.N k...M M M M M M N N c 2 t e 0 0 0 e +.g 4Xf.8 $ 1 $ = 7 eX) P @ ,.,.,.",
",.,.,.,.P.'.& & = = 8 ' @Xt.3XN X.u u u g g u | Z :.g c O.k.tXN M M M N N N N c i p S 0 0 e e  .Z 4XH.7 $ 1 $ $ 8 k Q P @ O O O ",
"r r ,.,.P.f.& & = = 1 - @Xt.3X7.J g i.L L L L :.f f K N _ i.K  .O.O.7.7.7.R.7.<.I i S * 0 e p p.u [ bX7 = 1 $ , ; C Q P @ O O O ",
"r r ,.,.P.f.& & = = 8 '.@Xt.4XR.$.J.S.X.s h.].} 8.6.K ` p z.J G W W % % W W T p.I i i S 0 e p p.u /.0X7 h 1 8 U.@.k Q *XO O O O ",
"O r r r P.CX& & & 8 , 1 y 1X4X_ <.+.M.w.} H H 5.b.f K < F 3.N.p % t 0 i % % < p.i i z i S e t p...0.W.A h 1 , k E m.) E.O O O O ",
"O O r r O CX8 & & , v 8 ^ 1X4X` <.6.X.c n.H c.c.c.f L.! F 3.X.< # p w e % # 6 p.z z % z p e z N ..0.eXH.$ 1 1 , @.m.) 7XO O O O ",
"O O O O P.>X, h & f.; , y t.5XW <.g w.L.s f f g :.L m 6 F 3.z.0 t e w e # # % p.# # % U G t G N ..fX}.A.%X' h , 8 D =.d O O O O ",
"O O O O O d .XlXe.e.- ' #.^ 5X! _ c zXw.L.k.i.i.i.w.R.z w <.z.OX# t e 0 4 G # p.4 % % % < 6 % <...b dXT.T.T.D e.u.) Q &XO @ @ O ",
"O O O O P.`.9XdX.X=.#.) Q.) }.! 6 < +XmXR. ._ ^.^.` % p 0 3.z.OX6 4 p 0 t t # p.4 % % % T W % <...b `.m.bXm.m.B.B.- -.7XO @ @ @ ",
"@ @ @ @ D.eXB.B.eX0XeX; A.D lX! 6 % +XBXT ` # ! 6 z p p e 3.$.OX6 4 p 0 i e # p.p % % 6 T T ! 3...b $Xf.= & 1 C U.f.{ }.O @ @ @ ",
"@ @ @ @ >X1 & = , bXZ.$ 2.u.}.W ! +XmXS._ ` z % # t p t i 3.N.OX6 # t 0 e 1.< M.t < < W ` _ ` c ..0.vXsX= h h $ A & -.E.@ @ @ @ ",
"@ @ @ @ $Xh = $ = 1 U.D ) ) /.W j.zXkXS.J.7.G % % t 2 t p z.N.:X# 4 4 e >.ZX( a.x.;.;.+.+.+./ N.u u cXB.- & h h 7 h ) E.a @ a a ",
"@ @ @ @ >X= & = = = C l.#.y [ W _ hXuXw.kXm < % # 2 2 G t $.X.>.4 4 4 ( a.a.x.a.x.v.v.v.( ZX:X$.*.d..XB.= - - h 8 $ ) =.d a a a ",
"@ @ @ @ `.$ - ' - & sXe.#.^ [ W ` J.4Xw.tXN.` % # 2 t 4 t N.X.>.>.>./ ].4.4.c.a.x.a.H H H x.( X.u Z yXB.$ & - h 8 8 ) =.d a a a ",
"@ @ @ a `.8 - ' ' = bXV.{ ^ [ < ! oXkXXXi.m ` 6 # t G 4 4 N.X.>.1.1./ } 4.c.].H H 4.c.v.H 4.x.L.d.*.yXU.= & - & 7 7 Q.=.+ a a a ",
"a a @ @ `.A - ' ' & B.V.y y /.6 <XwXXX-Xc z.q.6 G G # t 4 J X.1.:X:X Xo.s :.} c.c.c.} ].h.].a.s | | 0.H.& - & h , f.Q.=.+ a a a ",
"d a a a $X, & %X- ' A T.y y 0.# <XmX-XXXN N T 6 G # 6 t 4 J X.:XgXgXt p.J f h.h.} } } s h.4./ J L g 0.C - ' - h C f.-.=.+ d d d ",
"+ d d d 9XC 8 $ $ ' = l.y y 0.t <X=XkXi.^.^.< < 4 # 6 4 4 J J 1.gX;XOX4 `  .z.L.$.6.$.} n.x.[.6.| d./.f.- ' - h C 1 -.=.+ d d d ",
"+ + + d d >XA , 8 $ A e.{ { 0.e < _  . . X] < < G # 6 # 4 J J 1.;XrX;XOXe 0 T z. X .p.<.3.M.;.X.d.kX.X, & ' - = C & -.E.+ d d d ",
"+ + + + + 9XT.u.u.l.A.e.Q.Q lXF 4 6 < 6 p q.< < G % < < G z.$.1.;XrXrXgXOX;X4 <.1.< T q.] ] T m ..fX>XH.= ' - = , %X-.7Xd + + + ",
"+ + + + + vXH.A f.' D 2.D 2.lXe 1.>.t 1.OX] 6 6 2 G G t * <.$.1.;XrXrXgXOXrX>.3.1.4 # 6 6 6 p N ..fX$XA f.= & = C V.#.7Xd + + + ",
"+ + + + &X& 1 C k B.m.$ 2.u.u.yX<.c z.c 3.N.^.q. X< # # U 3.$.t 0 ;X9.j F ;X4 z.1.1.>.t 4 # t c ../..X~.=.e.A.%XH.%X#..X+ + + + ",
"+ + + + &X- ' ' & , k 9 2.D qXD ~.*X5X4XK.K.tXk.i.w.w.i.i.X.k.w.N.$.c 3.3.<.3.L.;.+.] ] q.q.q.L.-X@Xh k - A.e.u.l.l.T.}.+ + + + "
};
