/* XPM */
static char *player_xpm[] = {
"16 16 2 1",
"  c #000000",
". c #0000FF",
"                ",
"       ..       ",
"      ....      ",
"     ......     ",
"    ........    ",
"   ..........   ",
"   ..........   ",
"   ..........   ",
"    ........    ",
"     ......     ",
"      ....      ",
"       ..       ",
"                ",
"                ",
"                ",
"                "
};