/* XPM */
static char *wall_xpm[] = {
"16 16 2 1",
"  c #000000",
". c #FF0000",
"                ",
"  ............. ",
"  .          .  ",
"  .          .  ",
"  .          .  ",
"  .          .  ",
"  .          .  ",
"  .          .  ",
"  .          .  ",
"  .          .  ",
"  .          .  ",
"  .          .  ",
"  .          .  ",
"  .          .  ",
"  ............. ",
"                "
};